<?xml version="1.0" standalone="no"?><!DOCTYPE svg PUBLIC "-//W3C//DTD SVG 1.1//EN" "http://www.w3.org/Graphics/SVG/1.1/DTD/svg11.dtd"><svg t="1497839002705" class="icon" style="" viewBox="0 0 1024 1024" version="1.1" xmlns="http://www.w3.org/2000/svg" p-id="2452" xmlns:xlink="http://www.w3.org/1999/xlink" width="200" height="200"><defs><style type="text/css"></style></defs><path d="M741.44768 1023.0528c-0.00512 0 0 0 0 0-7.87456 0-12.97408-0.0768-12.97408-0.0768H220.20096c-63.69792 0-115.52256-60.60032-115.52256-135.0912V370.59584c0-74.496 51.82464-135.10656 115.52256-135.10656H792.2688c63.69792 0 115.52256 60.60544 115.52256 135.10656v517.29408c0 54.08768-29.03552 102.69184-75.78112 126.83264-5.21216 2.70336-16.09728 8.33024-90.56256 8.33024zM220.20096 276.44928c-41.1136 0-74.56256 42.23488-74.56256 94.14656v517.29408c0 51.90656 33.44896 94.1312 74.56256 94.1312h508.57984c0.37888 0.00512 5.22752 0.0768 12.66688 0.0768 47.26272 0 67.70176-2.58048 72.26368-4.0192 25.78944-13.5424 53.12-44.23168 53.12-90.18368V370.59584c0-51.91168-33.44384-94.14656-74.56256-94.14656H220.20096z" fill="#595A5A" p-id="2453"></path><path d="M314.53696 408.88832m-28.50304 0a28.50304 28.50304 0 1 0 57.00608 0 28.50304 28.50304 0 1 0-57.00608 0Z" fill="#595A5A" p-id="2454"></path><path d="M314.53696 447.63136c-21.36064 0-38.74304-17.3824-38.74304-38.74304 0-21.36064 17.3824-38.74304 38.74304-38.74304S353.28 387.52256 353.28 408.88832s-17.3824 38.74304-38.74304 38.74304z m0-57.00608a18.2784 18.2784 0 0 0-18.26304 18.26304c0 10.07104 8.192 18.26304 18.26304 18.26304S332.8 418.95936 332.8 408.88832a18.2784 18.2784 0 0 0-18.26304-18.26304z" fill="#585A5A" p-id="2455"></path><path d="M699.21792 408.88832m-28.50304 0a28.50304 28.50304 0 1 0 57.00608 0 28.50304 28.50304 0 1 0-57.00608 0Z" fill="#595A5A" p-id="2456"></path><path d="M699.21792 447.63136c-21.36064 0-38.73792-17.3824-38.73792-38.74304 0-21.36064 17.3824-38.74304 38.73792-38.74304 21.36576 0 38.74304 17.3824 38.74304 38.74304 0.00512 21.36576-17.37728 38.74304-38.74304 38.74304z m0-57.00608A18.2784 18.2784 0 0 0 680.96 408.88832c0 10.07104 8.192 18.26304 18.25792 18.26304s18.26304-8.192 18.26304-18.26304a18.2784 18.2784 0 0 0-18.26304-18.26304z" fill="#585A5A" p-id="2457"></path><path d="M699.20768 421.72928a20.48 20.48 0 0 1-20.48-20.48l0.00512-6.53824c0.03072-43.6736 0.10752-134.55872-10.09664-214.7584-12.58496-98.95936-35.4048-134.2208-52.56192-134.2208H397.6704c-17.15712 0-39.97184 35.2512-52.5568 134.18496-10.19904 80.18432-10.12736 171.07968-10.09152 214.7584v6.57408a20.48 20.48 0 0 1-40.96 0v-6.54336c-0.03584-44.52352-0.10752-137.18016 10.4192-219.9552C319.0272 60.37504 349.51168 4.77184 397.6704 4.77184h218.40896c48.15872 0 78.63808 55.61344 93.18912 170.01472 10.53184 82.7904 10.46016 175.4368 10.42432 219.96032l-0.00512 6.50752a20.48 20.48 0 0 1-20.48 20.47488z" fill="#595A5A" p-id="2458"></path><path d="M506.62912 567.20896c-48.3072 0-92.14976-27.01312-111.6928-68.81792a20.46976 20.46976 0 0 1 9.8816-27.22304 20.46976 20.46976 0 0 1 27.22304 9.8816c12.83584 27.45856 42.11712 45.20448 74.58816 45.20448 32.91648 0 62.34112-18.06336 74.96704-46.01344a20.48 20.48 0 0 1 37.32992 16.85504c-19.23584 42.58816-63.3088 70.11328-112.29696 70.11328z" fill="#595A5A" p-id="2459"></path><path d="M728.18176 883.3024a20.48 20.48 0 0 1 0-40.96c28.23168 0 51.2-22.97344 51.2-51.22048v-19.10272a20.48 20.48 0 0 1 40.96 0v19.10272c0 50.82624-41.34912 92.18048-92.16 92.18048z" fill="#595A5A" p-id="2460"></path></svg>