<?xml version="1.0" standalone="no"?><!DOCTYPE svg PUBLIC "-//W3C//DTD SVG 1.1//EN" "http://www.w3.org/Graphics/SVG/1.1/DTD/svg11.dtd"><svg t="1497747789780" class="icon" style="" viewBox="0 0 1024 1024" version="1.1" xmlns="http://www.w3.org/2000/svg" p-id="2578" xmlns:xlink="http://www.w3.org/1999/xlink" width="200" height="200"><defs><style type="text/css"></style></defs><path d="M436.929546 620.469114l150.452193 0c0-104.35105 0-313.105514 0-313.105514l122.457774-1.777195-194.174949-229.14464L314.491958 300.34236l0 1.777395 122.437587 5.243845C436.929546 307.363599 436.929546 516.118064 436.929546 620.469114zM849.851185 477.054549c-11.332317-22.294284-37.37466-71.60765-45.50115-77.003592-17.27209-1.081267-123.110131-5.524255-138.165924-1.753411-5.508265 9.184773-7.326033 59.907183 0 64.716922 9.597493 5.829048 63.978423-0.866013 69.914398 15.774305 9.900288 6.737032 129.4988 227.410815 129.4988 227.410815L664.428302 706.199589l-8.799034 131.19465-304.410809-1.736822 3.482039-132.926476L174.503271 702.73094c0 0 67.255201-128.175697 115.462916-225.676391 10.204481-19.845944 63.631658 5.873018 69.959967-15.794291l0-50.700025c-2.317829-3.509021-6.97627-10.509275-6.97627-10.509275l-127.724603-1.753411L64.245625 728.975147l0 190.680319c0 0 592.013015 0 883.579733 0 5.954963-3.007961 11.894935-7.68479 13.928556-14.038482L961.753915 695.692912C924.446409 622.80553 887.157691 549.922944 849.851185 477.054549z" p-id="2579"></path></svg>