<?xml version="1.0" standalone="no"?><!DOCTYPE svg PUBLIC "-//W3C//DTD SVG 1.1//EN" "http://www.w3.org/Graphics/SVG/1.1/DTD/svg11.dtd"><svg t="1497747796657" class="icon" style="" viewBox="0 0 1124 1024" version="1.1" xmlns="http://www.w3.org/2000/svg" p-id="2692" xmlns:xlink="http://www.w3.org/1999/xlink" width="219.53125" height="200"><defs><style type="text/css"></style></defs><path d="M52.860104 900.038057C52.860104 929.104421 76.565504 952.69938 105.910921 952.69938L1014.688169 952.69938C1044.027742 952.69938 1067.738986 929.104421 1067.738986 900.038057L1067.738986 337.604808 955.259504 337.604808C940.665282 337.604808 928.832937 325.772363 928.832937 311.172371 928.832937 296.578123 940.665282 284.745678 955.259504 284.745678L1094.142876 284.745678C1108.754507 284.745678 1120.598491 296.589861 1120.598491 311.201342L1120.598491 337.604808 1120.597916 900.038057C1120.597916 958.362599 1073.158019 1005.55826 1014.688169 1005.55826L105.910921 1005.55826C47.429432 1005.55826 0.001174 958.35111 0.001174 900.038057L0.001174 337.604059 0 311.200843C0 296.589112 11.843984 284.745179 26.455639 284.745179L165.339011 284.745179C179.933209 284.745179 191.765554 296.577623 191.765554 311.177616 191.765554 325.771863 179.933209 337.604059 165.339011 337.604059L52.860104 337.604059 52.860104 900.038057ZM533.870068 96.769499 533.870068 483.35897C533.870068 497.953218 545.702437 509.791407 560.296635 509.791407 574.896652 509.791407 586.729022 497.953218 586.729022 483.35897L586.729022 95.065912C641.989307 149.971543 765.871454 275.911805 765.871454 275.911805 776.19205 286.232476 792.925983 286.232476 803.24658 275.911805 813.567176 265.591383 813.567176 248.857475 803.24658 238.536804L578.990005 14.27431C568.663589 3.953889 551.929681 3.953889 541.60906 14.27431L482.389142 73.500222C427.373044 128.510501 317.35251 238.536804 317.35251 238.536804 307.031889 248.857475 307.031889 265.591383 317.35251 275.911805 327.673107 286.232476 344.407015 286.232476 354.727636 275.911805L530.840751 99.79879 533.870068 96.769499 533.870068 96.769499Z" p-id="2693"></path></svg>