<?xml version="1.0" standalone="no"?><!DOCTYPE svg PUBLIC "-//W3C//DTD SVG 1.1//EN" "http://www.w3.org/Graphics/SVG/1.1/DTD/svg11.dtd"><svg t="1497747782500" class="icon" style="" viewBox="0 0 1024 1024" version="1.1" xmlns="http://www.w3.org/2000/svg" p-id="2468" xmlns:xlink="http://www.w3.org/1999/xlink" width="200" height="200"><defs><style type="text/css"></style></defs><path d="M994 448l-68 0c-16.568 0-30 13.432-30 30l0 418L128 896 128 478c0-16.568-13.432-30-30-30L30 448c-16.568 0-30 13.432-30 30l0 450 0 64 0 2c0 16.568 13.432 30 30 30l2 0 66 0 828 0 66 0 2 0c16.568 0 30-13.432 30-30l0-2 0-64L1024 478C1024 461.432 1010.568 448 994 448z" p-id="2469"></path><path d="M448 256l0 416c0 17.672 14.328 32 32 32l64 0c17.672 0 32-14.328 32-32L576 256l192 0L512 0 256 256 448 256z" p-id="2470"></path></svg>